<!DOCTYPE svg PUBLIC "-//W3C//DTD SVG 1.1//EN" "http://www.w3.org/Graphics/SVG/1.1/DTD/svg11.dtd">
<!-- Uploaded to: SVG Find, www.svgrepo.com, Transformed by: SVG Find Mixer Tools -->
<svg width="800px" height="800px" version="1.1" viewBox="144 144 512 512" xmlns="http://www.w3.org/2000/svg" fill="#dd8383" stroke="#dd8383">
<g id="SVGRepo_bgCarrier" stroke-width="0"/>
<g id="SVGRepo_tracerCarrier" stroke-linecap="round" stroke-linejoin="round"/>
<g id="SVGRepo_iconCarrier"> <defs> <clipPath id="b"> <path d="m148.09 293h415.91v340h-415.91z"/> </clipPath> <clipPath id="a"> <path d="m472 167h179.9v172h-179.9z"/> </clipPath> </defs> <g clip-path="url(#b)"> <path d="m562.89 628.6c0.13281-0.22266 0.25781-0.44141 0.36328-0.67969 0.10156-0.20703 0.17969-0.42188 0.26172-0.64453 0.089844-0.24219 0.16797-0.48438 0.22656-0.73047 0.058593-0.22266 0.10156-0.44922 0.13281-0.67578 0.046875-0.27344 0.074219-0.54297 0.085938-0.82031 0.003906-0.10938 0.035156-0.22266 0.035156-0.33203 0-0.10547-0.03125-0.21094-0.035156-0.32422-0.011719-0.27734-0.039063-0.54297-0.085938-0.82031-0.035156-0.23828-0.082031-0.46875-0.13281-0.69922-0.066407-0.23828-0.13672-0.46875-0.22266-0.69922-0.089843-0.25-0.1875-0.5-0.30859-0.73438-0.050782-0.10547-0.082032-0.21094-0.13281-0.31641l-82.766-153.05c-0.003906-0.003907-0.011719-0.015625-0.015625-0.023438l-73.023-135.04c-0.046876-0.082031-0.10547-0.14062-0.14453-0.22266-0.14062-0.23828-0.30078-0.46484-0.46875-0.69141-0.13672-0.17969-0.27344-0.36328-0.41797-0.52344-0.17188-0.19141-0.35938-0.36328-0.54297-0.53516-0.17969-0.16797-0.35938-0.32422-0.55469-0.46875-0.1875-0.14062-0.39453-0.26562-0.59766-0.39453-0.22266-0.13672-0.44922-0.26563-0.68359-0.37891-0.089843-0.039062-0.16016-0.10156-0.25-0.14062-0.13672-0.058594-0.27734-0.082031-0.41797-0.13281-0.23047-0.085938-0.46875-0.16016-0.70703-0.22266-0.25781-0.066407-0.50781-0.10938-0.76562-0.15234-0.22266-0.035156-0.44141-0.054688-0.67578-0.070313-0.26172-0.011719-0.51953-0.011719-0.77734 0-0.23047 0.011719-0.46484 0.03125-0.69531 0.066407-0.25 0.035156-0.49219 0.085937-0.74219 0.14453-0.23047 0.054687-0.45703 0.12109-0.68359 0.20312-0.25 0.085937-0.49219 0.19141-0.73438 0.30859-0.125 0.058593-0.25781 0.097656-0.38281 0.16016-0.085938 0.046875-0.14453 0.10547-0.22656 0.15625-0.23047 0.13672-0.44922 0.29297-0.66406 0.45312-0.19141 0.14062-0.37891 0.27734-0.55078 0.43359-0.1875 0.16797-0.34766 0.34375-0.51953 0.52734-0.17187 0.1875-0.33594 0.36719-0.48828 0.57031-0.13672 0.1875-0.25781 0.38672-0.38281 0.58984-0.14062 0.22656-0.27344 0.45313-0.38672 0.69531-0.039062 0.089844-0.10156 0.16016-0.13672 0.24609l-6.6992 15.633-33.914-52.047c-0.054688-0.085937-0.125-0.14453-0.17969-0.22656-0.15625-0.22266-0.32812-0.42969-0.51562-0.63672-0.15625-0.17969-0.31641-0.35156-0.49219-0.51953-0.17188-0.16016-0.35938-0.3125-0.55078-0.45703-0.21484-0.16797-0.43359-0.32422-0.66406-0.46875-0.085937-0.050781-0.15234-0.11719-0.23828-0.16797-0.11719-0.066406-0.24219-0.097656-0.35938-0.15625-0.24219-0.11719-0.48438-0.22656-0.73438-0.31641-0.23047-0.085938-0.46484-0.15625-0.69922-0.21484-0.22656-0.058594-0.45703-0.10547-0.69141-0.14453-0.25781-0.039062-0.50781-0.070312-0.76172-0.085937-0.23047-0.011719-0.46484-0.015625-0.69531-0.003906-0.24609 0.003906-0.49219 0.023437-0.73438 0.058593-0.23828 0.03125-0.47266 0.074219-0.71484 0.125-0.24219 0.054688-0.47266 0.12109-0.71094 0.20313-0.22266 0.074218-0.44141 0.16016-0.66016 0.25781-0.25 0.10938-0.48828 0.23828-0.72656 0.37109-0.10938 0.066406-0.22656 0.10547-0.33594 0.17578-0.082031 0.050781-0.14062 0.12109-0.22266 0.17578-0.22266 0.16016-0.43359 0.33203-0.64453 0.51953-0.17578 0.15625-0.35156 0.31641-0.51562 0.48828-0.16016 0.17578-0.3125 0.35938-0.45703 0.55078-0.16797 0.21484-0.32812 0.4375-0.46875 0.67188-0.050781 0.082031-0.11719 0.15234-0.16016 0.23047l-21.965 39.211-24.504-19.84c-0.12109-0.097657-0.25-0.15625-0.37891-0.24609-0.21094-0.15625-0.42969-0.30078-0.66016-0.43359-0.23828-0.13672-0.48438-0.24609-0.73047-0.35156-0.13672-0.058594-0.25-0.13672-0.39453-0.19141-0.074219-0.023437-0.15625-0.035156-0.23047-0.058593-0.26562-0.089844-0.52734-0.15234-0.80078-0.20703-0.22656-0.050781-0.45312-0.10156-0.67969-0.125-0.24219-0.03125-0.48438-0.035156-0.73047-0.035156-0.24609-0.003906-0.49219-0.015625-0.74219 0.003906-0.23828 0.019532-0.47266 0.066406-0.71094 0.10547-0.23828 0.039063-0.47266 0.082031-0.70703 0.14062-0.24609 0.066406-0.48047 0.16016-0.71875 0.25-0.21094 0.082031-0.41797 0.15625-0.625 0.25781-0.22656 0.10938-0.44141 0.25-0.66406 0.38672-0.20312 0.125-0.39844 0.24609-0.58594 0.39453-0.1875 0.14063-0.35938 0.30859-0.52734 0.46875-0.20313 0.1875-0.39453 0.36719-0.57031 0.57422-0.054687 0.066407-0.12109 0.10938-0.17578 0.17578-0.097656 0.11719-0.15625 0.25-0.24609 0.37109-0.15234 0.21094-0.30078 0.42969-0.43359 0.66406-0.13672 0.23828-0.24609 0.48438-0.35156 0.73047-0.058594 0.13281-0.13672 0.25-0.19141 0.39453l-25.16 68.832-2.2305-4.1562c-0.066406-0.12109-0.15625-0.21484-0.22266-0.33203-0.14062-0.23047-0.28906-0.45312-0.45312-0.67188-0.14062-0.1875-0.29297-0.36328-0.44922-0.53516-0.17187-0.1875-0.35156-0.36328-0.54297-0.53516-0.1875-0.16016-0.37109-0.3125-0.57031-0.45312-0.19531-0.14062-0.39844-0.27734-0.60938-0.39844-0.22656-0.13281-0.46484-0.25-0.70703-0.35938-0.125-0.054688-0.23047-0.13672-0.36328-0.1875-0.097656-0.035156-0.1875-0.046875-0.28125-0.074219-0.25-0.089844-0.50781-0.15625-0.76953-0.21094-0.22656-0.054688-0.45312-0.10547-0.67969-0.13672-0.25-0.035157-0.5-0.046875-0.75-0.050781-0.23828-0.011719-0.48047-0.019532-0.71484-0.003907-0.24609 0.015625-0.48828 0.054688-0.73438 0.097657-0.24219 0.039062-0.48438 0.074218-0.71484 0.13672-0.22656 0.058594-0.44922 0.14062-0.67187 0.22266-0.25 0.089844-0.5 0.1875-0.73438 0.30859-0.085937 0.039063-0.17578 0.058594-0.26172 0.10547-0.12109 0.066406-0.21094 0.15234-0.32812 0.22266-0.23047 0.14062-0.45703 0.29297-0.67578 0.45703-0.1875 0.14063-0.35938 0.29297-0.52344 0.44141-0.19141 0.17188-0.36719 0.35156-0.53906 0.54297-0.16016 0.1875-0.3125 0.37891-0.45313 0.57422-0.14062 0.19531-0.27344 0.39453-0.39453 0.59766-0.13672 0.23047-0.25781 0.47266-0.36719 0.71875-0.054688 0.12109-0.13281 0.22656-0.17969 0.35156l-92.109 236.18c-0.066406 0.17188-0.089843 0.34375-0.14453 0.51953-0.085938 0.27734-0.17578 0.54297-0.23047 0.83203-0.058593 0.28906-0.070312 0.57812-0.09375 0.87109-0.011719 0.17578-0.050781 0.33984-0.050781 0.52344 0 0.03125 0.011719 0.058594 0.011719 0.089844 0 0.31641 0.050781 0.625 0.097656 0.9375 0.023437 0.19141 0.03125 0.38281 0.070313 0.5625 0.054687 0.26172 0.15234 0.50391 0.23047 0.75 0.070313 0.21484 0.12109 0.44141 0.21094 0.64844 0.097656 0.22656 0.22656 0.42969 0.34766 0.64062 0.11719 0.21094 0.21094 0.43359 0.34766 0.62891 0.15234 0.21484 0.33594 0.41406 0.50781 0.61328 0.14062 0.16016 0.26172 0.34375 0.41797 0.49219 0.17578 0.17188 0.37891 0.31641 0.57031 0.47266 0.19141 0.15234 0.36719 0.31641 0.57422 0.45703 0.16016 0.10547 0.34766 0.1875 0.52344 0.28125 0.26562 0.15234 0.52734 0.30859 0.81641 0.41797 0.03125 0.015624 0.054688 0.035156 0.085938 0.046874 0.22266 0.089844 0.44922 0.125 0.67578 0.19141 0.20703 0.058593 0.40625 0.13672 0.62109 0.17578 0.48438 0.097656 0.96875 0.14453 1.4492 0.14453h400.79 0.003906c0.011719 0 0.015625-0.003906 0.023438-0.003906 0.57031 0 1.1289-0.082031 1.6641-0.20312 0.15625-0.035156 0.30859-0.10156 0.46484-0.14062 0.40625-0.12109 0.80469-0.27344 1.1836-0.46484 0.085937-0.039062 0.17188-0.054687 0.25781-0.10156 0.10547-0.058594 0.19141-0.13672 0.29688-0.20312 0.22266-0.13281 0.43359-0.27734 0.64062-0.43359 0.20312-0.15234 0.39453-0.3125 0.57812-0.48047 0.16797-0.15234 0.31641-0.31641 0.47266-0.48828 0.17578-0.19531 0.34766-0.39453 0.50391-0.60547 0.125-0.16797 0.24609-0.35547 0.36328-0.54688zm-396.18-11.438 54.547-139.85 51.727-25.801 39.031 72.699-39.836 92.953zm82.141-210.6 16.977 31.625-36.391 18.152zm115.77 33.262 21.699 35.926c0.039063 0.066406 0.097657 0.10547 0.13672 0.17188 0.29297 0.45703 0.62891 0.88672 1.0234 1.2812 0.039062 0.039062 0.074219 0.089843 0.10938 0.125 0.37891 0.35156 0.78906 0.67969 1.25 0.95703 0.046875 0.03125 0.10156 0.039062 0.14453 0.066406 0.39844 0.23047 0.82031 0.38672 1.25 0.54297 0.20703 0.074219 0.39844 0.17969 0.60938 0.23828 0.5625 0.15234 1.1484 0.22266 1.7344 0.23828 0.070313 0.003906 0.13672 0.03125 0.20703 0.03125h0.003906 0.003907c0.074219 0 0.14453-0.03125 0.22266-0.03125 0.57422-0.019532 1.1445-0.085938 1.6914-0.22656 0.20703-0.054687 0.39844-0.16797 0.59766-0.23828 0.42969-0.15234 0.85156-0.3125 1.25-0.53516 0.046874-0.023438 0.089843-0.035157 0.13672-0.058594 0.45703-0.28125 0.875-0.59766 1.2539-0.94531 0.050782-0.050781 0.089844-0.10938 0.14063-0.16016 0.38281-0.37891 0.71484-0.79688 1.0078-1.2383 0.039062-0.058594 0.097656-0.10547 0.13672-0.16797l15.035-24.52 54.008 26.305 75.484 139.59-255.14-0.007813zm36.797-85.863 54.508 100.79-41.211-20.066c-0.12109-0.058593-0.24609-0.085937-0.36719-0.13281-0.24609-0.10547-0.5-0.19531-0.74609-0.27734-0.22656-0.070313-0.45312-0.12109-0.67969-0.17188-0.25781-0.054688-0.51562-0.097656-0.76562-0.11719-0.23828-0.019531-0.46484-0.035156-0.69922-0.035156-0.25-0.003906-0.50391 0.011719-0.75 0.035156-0.23047 0.019532-0.46484 0.050782-0.69141 0.097657-0.24609 0.046875-0.48828 0.10547-0.73438 0.17578-0.22266 0.066406-0.4375 0.13672-0.64844 0.22266-0.23828 0.097656-0.46484 0.19531-0.69141 0.31641-0.20703 0.10547-0.40625 0.22266-0.60547 0.34766-0.21094 0.13281-0.40625 0.27734-0.60547 0.42969-0.19531 0.15625-0.37891 0.31641-0.55469 0.49219-0.17188 0.16797-0.33594 0.33594-0.5 0.52344-0.17188 0.20312-0.32812 0.40625-0.48438 0.62891-0.074218 0.10547-0.16797 0.19531-0.23047 0.3125l-12.125 19.785-20.887-34.578zm-109.04-18.527 23.25 18.824c0.054688 0.046875 0.12109 0.054688 0.17969 0.10156 0.28125 0.21484 0.5625 0.4375 0.88281 0.62109 0.26172 0.14453 0.54297 0.21484 0.82031 0.32813 0.21484 0.089843 0.42188 0.19141 0.64844 0.26172 0.73047 0.22656 1.4727 0.37891 2.2148 0.37891 0.035156 0 0.066406-0.011718 0.10156-0.011718 0.57422-0.003906 1.1484-0.089844 1.707-0.22266 0.19531-0.050782 0.37891-0.125 0.57031-0.19141 0.39453-0.13281 0.76953-0.27734 1.1445-0.47266 0.20703-0.10547 0.39453-0.23047 0.58984-0.35938 0.32422-0.21094 0.62891-0.44141 0.92578-0.71094 0.1875-0.16797 0.36328-0.33203 0.52734-0.52344 0.10156-0.10938 0.22266-0.19531 0.31641-0.31641 0.21094-0.26562 0.37891-0.55469 0.55078-0.83984 0.050781-0.082031 0.12109-0.14062 0.17187-0.22266l20.242-36.137 32.605 50.035-60.199 140.46-53.402-99.469z"/> </g> <path d="m562.3 208.76c-24.562 0-44.547 19.984-44.547 44.559 0 24.566 19.984 44.551 44.547 44.551 24.574 0 44.57-19.984 44.57-44.551 0.003906-24.566-19.992-44.559-44.57-44.559zm0 74c-16.227 0-29.434-13.203-29.434-29.438 0-16.238 13.203-29.441 29.434-29.441 16.242 0 29.457 13.211 29.457 29.441 0 16.234-13.219 29.438-29.457 29.438z"/> <g clip-path="url(#a)"> <path d="m650.48 248.9-14.156-19.629-0.097656-24.203c-0.015625-3.2539-2.1055-6.1328-5.1953-7.1484l-22.988-7.5625-14.289-19.531c-1.9258-2.625-5.3086-3.7344-8.4141-2.7305l-23.039 7.4102-23.039-7.4102c-3.0938-0.99609-6.4844 0.10547-8.4141 2.7305l-14.289 19.531-22.98 7.5625c-3.0898 1.0195-5.1797 3.8945-5.1953 7.1484l-0.097656 24.203-14.152 19.633c-1.9062 2.6367-1.9062 6.1953 0 8.8359l14.152 19.637 0.097656 24.191c0.015625 3.2539 2.1055 6.1328 5.1953 7.1484l22.988 7.5586 14.289 19.539c1.4492 1.9844 3.7344 3.0977 6.1016 3.0977 0.76953 0 1.5508-0.11719 2.3125-0.36328l23.039-7.4102 23.039 7.4102c3.1016 0.99609 6.4883-0.10547 8.4141-2.7305l14.289-19.531 22.988-7.5625c3.0898-1.0195 5.1797-3.8945 5.1953-7.1484l0.097656-24.191 14.156-19.645c1.8984-2.6406 1.8984-6.2031-0.007813-8.8398zm-27.836 21.613c-0.92188 1.2812-1.4219 2.8125-1.4258 4.3867l-0.085938 21.172-20.117 6.6133c-1.5 0.49219-2.8047 1.4453-3.7383 2.7148l-12.496 17.094-20.164-6.4844c-0.75-0.24219-1.5312-0.36328-2.3125-0.36328s-1.5625 0.12109-2.3125 0.36328l-20.164 6.4844-12.496-17.098c-0.9375-1.2734-2.2383-2.2266-3.7383-2.7188l-20.117-6.6133-0.085937-21.172c-0.003907-1.5781-0.50781-3.1094-1.4258-4.3867l-12.383-17.191 12.383-17.18c0.92187-1.2812 1.4219-2.8125 1.4258-4.3867l0.085937-21.18 20.117-6.6133c1.5-0.49219 2.8047-1.4453 3.7383-2.7188l12.496-17.09 20.164 6.4844c1.5078 0.48828 3.1172 0.48828 4.625 0l20.164-6.4844 12.496 17.09c0.9375 1.2734 2.2383 2.2266 3.7383 2.7188l20.117 6.6133 0.085938 21.18c0.003906 1.5781 0.50781 3.1133 1.4258 4.3945l12.391 17.18z"/> </g> </g>
</svg>